PathFileType	4	(X/Y/Z)	C:/Users/beibeiliu/ov580/test_trc\sequence.39_training_dense_right.trc
DataRate	CameraRate	NumFrames	NumMarkers	Units	OrigDataRate	OrigDataStartFrame	OrigNumFrames
120	120	8	19	mm	120	1	82
Frame#	Time	ThumbCMC			ThumbMCP			ThumbIP			ThumbTip			IndexMCP			IndexPIP			IndexTip			MiddleMCP			MiddlePIP			MiddleTip			RingMCP			RingPIP			RingTip			PinkyMCP			PinkyPIP			PinkyTip			BackHand1			BackHand2			BackHand3	
		X0	Y0	Z0	X1	Y1	Z1	X2	Y2	Z2	X3	Y3	Z3	X4	Y4	Z4	X5	Y5	Z5	X6	Y6	Z6	X7	Y7	Z7	X8	Y8	Z8	X9	Y9	Z9	X10	Y10	Z10	X11	Y11	Z11	X12	Y12	Z12	X13	Y13	Z13	X14	Y14	Z14	X15	Y15	Z15	X16	Y16	Z16	X17	Y17	Z17	X18	Y18	Z18	
0	0	62.0994	42.4304	48.3629	42.295	27.2052	27.4443	36.5712	18.5839	5.19698	33.7098	9.90053	-13.2266	69.0378	48.9067	-18.8294	64.6427	35.8961	-43.7415	56.7917	23.242	-58.9057	91.2866	41.1898	-24.8392	84.3986	28.9908	-48.1047	81.6522	5.84855	-65.2564	105.609	31.9524	-19.0367	102.097	18.4709	-40.2749	97.9194	0.66697	-55.6305	120.943	23.3378	-6.70879	122.479	11.8122	-23.3921	122.98	0.706421	-37.4458	109.128	49.8902	25.0792	109.454	56.2896	52.2947	85.0286	61.1877	38.9993	
1	0.00833333	61.308	31.9126	2.3758	48.0156	15.0602	-10.9037	40.9135	3.24092	-34.5581	32.9993	-8.13559	-47.8824	76.539	35.9701	-58.6346	73.408	28.0103	-84.2261	73.7175	14.8805	-103.97	97.0753	30.8485	-61.6044	97.278	18.2567	-89.5679	99.7129	1.31099	-109.094	112.423	21.0646	-57.1999	119.105	8.90548	-72.9167	114.203	-5.04322	-93.8468	127.259	12.1488	-39.7576	132.666	0.297438	-57.275	131.949	-10.0377	-73.8125	111.818	38.6537	-11.4452	109.898	45.7071	14.7533	86.5723	51.4665	-4.05735	
2	0.0166667	66.1309	8.92291	-40.4848	57.9985	-11.3292	-60.1317	47.4181	-22.6818	-79.1144	41.8478	-32.6249	-93.3902	87.5424	16.0976	-104.657	85.0401	12.3862	-127.454	88.9322	2.2232	-149.031	109.722	11.7781	-110.92	112.399	3.3136	-134.647	118.626	-13.1078	-156.362	126.893	3.07453	-98.4374	129.875	-5.73319	-117.426	132.162	-20.3627	-137.027	139.025	-5.26525	-83.7931	145.499	-16.5901	-97.2777	147.574	-25.7696	-113.264	119.866	18.4151	-56.5191	118.286	25.7323	-32.0959	94.4146	30.1603	-48.4845	
3	0.025	66.6301	-8.61242	-68.1344	56.2712	-29.0663	-80.5365	49.1774	-43.0928	-102.133	40.5225	-55.2096	-114.309	88.1741	-2.65232	-127.466	89.1902	-10.302	-155.518	93.9959	-21.2808	-173.705	116.733	-7.45859	-130.932	120.751	-19.3662	-157.372	124.665	-38.0102	-174.324	129.451	-13.729	-122.593	135.819	-27.1515	-143.017	133.883	-43.9193	-157.57	141.623	-22.5807	-103.901	148.161	-33.6075	-117.343	151.273	-50.6794	-135.598	119.072	3.45027	-80.5663	116.785	8.25586	-53.1542	92.467	12.1232	-77.1839	
4	0.0333333	64.5184	-15.3571	-70.9458	56.2117	-36.7087	-83.113	49.0462	-50.9859	-102.644	44.137	-65.1723	-117.338	89.1242	-12.6219	-132.576	86.9661	-21.4171	-154.445	91.1898	-39.5298	-171.038	109.971	-15.1576	-130.311	115.259	-33.6815	-157.662	114.955	-56.3416	-168.771	125.654	-22.4998	-119.048	128.739	-39.6927	-144.14	124.713	-62.5652	-152.895	140.186	-30.9817	-101.905	145.438	-46.6349	-122.784	140.348	-65.7684	-132.901	117.807	-4.73439	-78.2745	118.634	2.27772	-54.104	95.8875	4.4576	-73.6764	
5	0.0416667	65.3537	-12.4915	-61.7915	58.4442	-32.864	-75.793	52.734	-45.5207	-92.1971	49.5151	-58.8596	-109.643	85.5056	-8.58459	-121.5	89.2186	-24.0368	-144.252	80.6622	-46.453	-157.576	111.517	-13.0766	-119.986	113.694	-33.0353	-144.029	103.721	-60.0567	-146.004	123.867	-20.8051	-113.306	126.022	-40.5062	-130.677	111.023	-61.1778	-130.148	140.013	-31.7268	-95.8897	138.13	-45.361	-112.198	123.269	-69.6916	-116.713	122.283	-5.10462	-69.239	116.484	1.73065	-45.9386	96.7722	6.79275	-66.1333	
6	0.05	69.4612	-4.10629	-42.7003	56.1679	-21.4283	-60.6422	51.1985	-33.0503	-82.9507	50.1312	-45.7693	-99.0936	88.4947	1.72217	-103.246	82.8097	-15.1776	-125.736	80.3759	-40.7488	-130.167	109.479	-3.67469	-104.221	105.934	-26.6338	-124.571	91.7997	-52.5586	-113.935	126.585	-16.1675	-95.9665	118.998	-37.7121	-110.614	101.591	-54.5269	-99.7708	135.004	-25.3122	-78.8569	129.189	-46.079	-94.5942	105.737	-58.3475	-88.1859	121.363	2.49016	-48.3528	116.571	5.45773	-24.6003	97.8365	14.0581	-45.6826	
7	0.0583333	67.6374	11.1528	-15.2651	55.7309	-2.77645	-40.1436	51.9963	-11.3942	-62.5732	51.2708	-21.506	-83.3179	87.0171	21.7151	-79.8143	81.9344	0.391593	-100.277	70.3813	-24.3111	-101.999	109.114	10.3605	-82.2936	98.2757	-11.7492	-99.0931	82.9958	-33.484	-77.3781	122.859	-4.43963	-75.1048	109.51	-25.3669	-85.6589	90.1652	-32.702	-69.5105	131.552	-13.0308	-58.1619	119.834	-28.8933	-74.0461	95.9607	-38.3747	-60.4372	122.705	14.9419	-28.9611	118.22	13.9365	1.50827	97.5831	28.2989	-17.1812	
